<svg width="1280" height="640" viewBox="0 0 1280 640" fill="none" xmlns="http://www.w3.org/2000/svg">
  <rect width="1280" height="640" fill="#101418"/>
  <path d="M0 96H1280M0 192H1280M0 288H1280M0 384H1280M0 480H1280M0 576H1280M128 0V640M256 0V640M384 0V640M512 0V640M640 0V640M768 0V640M896 0V640M1024 0V640M1152 0V640" stroke="#1d2730" stroke-width="1"/>
  <rect x="40" y="40" width="1200" height="560" rx="26" fill="#151b21" stroke="#2d3944" stroke-width="2"/>
  <rect x="78" y="78" width="1124" height="54" rx="17" fill="#0d1117" stroke="#2b3540"/>
  <circle cx="108" cy="105" r="7" fill="#ff6b6b"/>
  <circle cx="132" cy="105" r="7" fill="#ffd166"/>
  <circle cx="156" cy="105" r="7" fill="#5dd39e"/>
  <text x="190" y="113" fill="#d8e1e8" font-family="Inter, ui-sans-serif, system-ui, -apple-system, BlinkMacSystemFont, Segoe UI, sans-serif" font-size="22" font-weight="650">mcp-local-relay</text>
  <text x="80" y="236" fill="#f4f7fa" font-family="Inter, ui-sans-serif, system-ui, -apple-system, BlinkMacSystemFont, Segoe UI, sans-serif" font-size="78" font-weight="760" letter-spacing="0">mcp-local-relay</text>
  <text x="84" y="296" fill="#aebbc7" font-family="Inter, ui-sans-serif, system-ui, -apple-system, BlinkMacSystemFont, Segoe UI, sans-serif" font-size="31" font-weight="500">One local MCP endpoint. Warm upstreams. Menu-bar control.</text>
  <g transform="translate(84 365)">
    <rect x="0" y="0" width="210" height="62" rx="16" fill="#111820" stroke="#2c3946"/>
    <circle cx="32" cy="31" r="12" fill="#58d68d"/>
    <text x="58" y="39" fill="#e7edf3" font-family="Inter, ui-sans-serif, system-ui, -apple-system, BlinkMacSystemFont, Segoe UI, sans-serif" font-size="22" font-weight="680">localhost</text>
    <path d="M210 31H314" stroke="#46606f" stroke-width="3"/>
    <path d="M314 31C354 31 354 -80 394 -80" stroke="#46606f" stroke-width="3"/>
    <path d="M314 31C354 31 354 31 394 31" stroke="#46606f" stroke-width="3"/>
    <path d="M314 31C354 31 354 142 394 142" stroke="#46606f" stroke-width="3"/>
    <g transform="translate(394 -111)">
      <rect width="255" height="62" rx="15" fill="#121a22" stroke="#314150"/>
      <circle cx="31" cy="31" r="9" fill="#5dd39e"/>
      <text x="54" y="39" fill="#e5edf5" font-family="Inter, ui-sans-serif, system-ui, -apple-system, BlinkMacSystemFont, Segoe UI, sans-serif" font-size="20" font-weight="650">Mail Index</text>
      <text x="165" y="39" fill="#80e6b0" font-family="Inter, ui-sans-serif, system-ui, -apple-system, BlinkMacSystemFont, Segoe UI, sans-serif" font-size="18" font-weight="650">Ready</text>
    </g>
    <g transform="translate(394 0)">
      <rect width="255" height="62" rx="15" fill="#121a22" stroke="#314150"/>
      <circle cx="31" cy="31" r="9" fill="#47c2ff"/>
      <text x="54" y="39" fill="#e5edf5" font-family="Inter, ui-sans-serif, system-ui, -apple-system, BlinkMacSystemFont, Segoe UI, sans-serif" font-size="20" font-weight="650">Corpus Codex</text>
      <text x="188" y="39" fill="#8fd9ff" font-family="Inter, ui-sans-serif, system-ui, -apple-system, BlinkMacSystemFont, Segoe UI, sans-serif" font-size="18" font-weight="650">Run</text>
    </g>
    <g transform="translate(394 111)">
      <rect width="255" height="62" rx="15" fill="#121a22" stroke="#314150"/>
      <circle cx="31" cy="31" r="9" fill="#ffd166"/>
      <text x="54" y="39" fill="#e5edf5" font-family="Inter, ui-sans-serif, system-ui, -apple-system, BlinkMacSystemFont, Segoe UI, sans-serif" font-size="20" font-weight="650">PostHog Local</text>
      <text x="190" y="39" fill="#ffd98e" font-family="Inter, ui-sans-serif, system-ui, -apple-system, BlinkMacSystemFont, Segoe UI, sans-serif" font-size="18" font-weight="650">Live</text>
    </g>
  </g>
  <g transform="translate(818 178)">
    <rect width="342" height="382" rx="24" fill="#0c1117" stroke="#354554" stroke-width="2"/>
    <rect x="20" y="20" width="302" height="42" rx="13" fill="#16212a"/>
    <circle cx="45" cy="41" r="8" fill="#57d68d"/>
    <text x="65" y="49" fill="#f3f7fb" font-family="Inter, ui-sans-serif, system-ui, -apple-system, BlinkMacSystemFont, Segoe UI, sans-serif" font-size="21" font-weight="720">MCPs ready</text>
    <text x="220" y="49" fill="#9aabb8" font-family="Inter, ui-sans-serif, system-ui, -apple-system, BlinkMacSystemFont, Segoe UI, sans-serif" font-size="18" font-weight="620">47 tools</text>
    <line x1="20" y1="84" x2="322" y2="84" stroke="#26343f"/>
    <g transform="translate(20 108)">
      <text x="0" y="0" fill="#7d8d9a" font-family="Inter, ui-sans-serif, system-ui, -apple-system, BlinkMacSystemFont, Segoe UI, sans-serif" font-size="15" font-weight="700">Local search</text>
      <rect y="18" width="302" height="48" rx="12" fill="#121a22"/>
      <circle cx="20" cy="42" r="6" fill="#5dd39e"/>
      <text x="38" y="50" fill="#ecf3f8" font-family="Inter, ui-sans-serif, system-ui, -apple-system, BlinkMacSystemFont, Segoe UI, sans-serif" font-size="19" font-weight="660">Mail Index · Ready</text>
      <text x="255" y="50" fill="#99a9b5" font-family="Inter, ui-sans-serif, system-ui, -apple-system, BlinkMacSystemFont, Segoe UI, sans-serif" font-size="19" font-weight="760">›</text>
    </g>
    <g transform="translate(20 196)">
      <text x="0" y="0" fill="#7d8d9a" font-family="Inter, ui-sans-serif, system-ui, -apple-system, BlinkMacSystemFont, Segoe UI, sans-serif" font-size="15" font-weight="700">Local automation</text>
      <rect y="18" width="302" height="48" rx="12" fill="#121a22"/>
      <circle cx="20" cy="42" r="6" fill="#47c2ff"/>
      <text x="38" y="50" fill="#ecf3f8" font-family="Inter, ui-sans-serif, system-ui, -apple-system, BlinkMacSystemFont, Segoe UI, sans-serif" font-size="19" font-weight="660">Corpus Codex · Running</text>
      <text x="255" y="50" fill="#99a9b5" font-family="Inter, ui-sans-serif, system-ui, -apple-system, BlinkMacSystemFont, Segoe UI, sans-serif" font-size="19" font-weight="760">›</text>
    </g>
    <g transform="translate(20 284)">
      <text x="0" y="0" fill="#7d8d9a" font-family="Inter, ui-sans-serif, system-ui, -apple-system, BlinkMacSystemFont, Segoe UI, sans-serif" font-size="15" font-weight="700">Product analytics</text>
      <rect y="18" width="302" height="48" rx="12" fill="#121a22"/>
      <circle cx="20" cy="42" r="6" fill="#ffd166"/>
      <text x="38" y="50" fill="#ecf3f8" font-family="Inter, ui-sans-serif, system-ui, -apple-system, BlinkMacSystemFont, Segoe UI, sans-serif" font-size="19" font-weight="660">PostHog · Connected</text>
      <text x="255" y="50" fill="#99a9b5" font-family="Inter, ui-sans-serif, system-ui, -apple-system, BlinkMacSystemFont, Segoe UI, sans-serif" font-size="19" font-weight="760">›</text>
    </g>
  </g>
  <text x="84" y="562" fill="#748592" font-family="Inter, ui-sans-serif, system-ui, -apple-system, BlinkMacSystemFont, Segoe UI, sans-serif" font-size="20" font-weight="560">Persistent local relay for Model Context Protocol servers</text>
</svg>
